<?xml version="1.0" encoding="UTF-8" standalone="no"?>
<svg width="401px" height="74px" viewBox="0 0 401 74" version="1.1" xmlns="http://www.w3.org/2000/svg" xmlns:xlink="http://www.w3.org/1999/xlink">
    <!-- Generator: Sketch 40.1 (33804) - http://www.bohemiancoding.com/sketch -->
    <title>Artboard 1</title>
    <desc>Created with Sketch.</desc>
    <defs>
        <linearGradient x1="50.0002644%" y1="100%" x2="50.0002644%" y2="0%" id="linearGradient-1">
            <stop stop-color="#F59331" offset="0%"></stop>
            <stop stop-color="#F8EB48" offset="50%"></stop>
            <stop stop-color="#F59331" offset="100%"></stop>
        </linearGradient>
    </defs>
    <g id="Page-1" stroke="none" stroke-width="1" fill="none" fill-rule="evenodd">
        <g id="Artboard-1">
            <g id="Group">
                <rect id="Rectangle-path" fill="url(#linearGradient-1)" x="7.604" y="7.847" width="378.26" height="50.896"></rect>
                <g id="Shape" fill="#000000">
                    <path d="M0.3,14.973 L0.3,7.847 L7.6,7.847 L7.6,14.972 L0.3,14.973 Z M0.3,22.28 L0.3,14.973 L7.6,14.973 L7.6,22.28 L0.3,22.28 Z M0.3,29.587 L0.3,22.28 L7.6,22.28 L7.6,29.587 L0.3,29.587 Z M0.3,36.858 L0.3,29.587 L7.6,29.587 L7.6,36.858 L0.3,36.858 Z M0.3,44.165 L0.3,36.858 L7.6,36.858 L7.6,44.165 L0.3,44.165 Z M0.3,51.436 L0.3,44.165 L7.6,44.165 L7.6,51.436 L0.3,51.436 Z M0.3,58.744 L0.3,51.436 L7.6,51.436 L7.6,58.744 L0.3,58.744 Z M0.3,65.869 L0.3,58.744 L7.6,58.744 L7.6,65.869 L0.3,65.869 Z M7.6,7.847 L7.6,0.54 L14.871,0.54 L14.871,7.847 L7.6,7.847 Z M7.6,14.972 L7.6,7.847 L14.871,7.847 L14.871,14.972 L7.6,14.972 Z M7.6,65.872 L7.6,58.747 L14.871,58.747 L14.871,65.872 L7.6,65.872 Z M14.871,65.872 L14.871,73.072 L7.6,73.072 L7.6,65.872 L14.871,65.872 Z M14.871,7.851 L14.871,0.54 L22.178,0.54 L22.178,7.847 L14.871,7.851 Z M14.871,65.872 L14.871,58.747 L22.178,58.747 L22.178,65.872 L14.871,65.872 Z M22.178,65.872 L22.178,73.072 L14.875,73.072 L14.875,65.872 L22.178,65.872 Z M22.178,7.851 L22.178,0.54 L29.303,0.54 L29.303,7.847 L22.178,7.851 Z M22.178,22.283 L22.178,14.973 L29.303,14.973 L29.303,22.28 L22.178,22.283 Z M22.178,29.59 L22.178,22.28 L29.303,22.28 L29.303,29.587 L22.178,29.59 Z M22.178,36.861 L22.178,29.587 L29.303,29.587 L29.303,36.858 L22.178,36.861 Z M22.178,51.439 L22.178,44.165 L29.303,44.165 L29.303,51.436 L22.178,51.439 Z M22.178,58.747 L22.178,51.439 L29.303,51.439 L29.303,58.747 L22.178,58.747 Z M22.178,65.872 L22.178,58.747 L29.303,58.747 L29.303,65.872 L22.178,65.872 Z M29.303,65.872 L29.303,73.072 L22.182,73.072 L22.182,65.872 L29.303,65.872 Z M29.303,7.851 L29.303,0.54 L36.61,0.54 L36.61,7.847 L29.303,7.851 Z M29.303,22.283 L29.303,14.973 L36.61,14.973 L36.61,22.28 L29.303,22.283 Z M29.303,29.59 L29.303,22.28 L36.61,22.28 L36.61,29.587 L29.303,29.59 Z M29.303,36.861 L29.303,29.587 L36.61,29.587 L36.61,36.858 L29.303,36.861 Z M29.303,51.439 L29.303,44.165 L36.61,44.165 L36.61,51.436 L29.303,51.439 Z M29.303,58.747 L29.303,51.439 L36.61,51.439 L36.61,58.747 L29.303,58.747 Z M29.303,65.872 L29.303,58.747 L36.61,58.747 L36.61,65.872 L29.303,65.872 Z M36.61,65.872 L36.61,73.072 L29.308,73.072 L29.308,65.872 L36.61,65.872 Z M36.61,7.851 L36.61,0.54 L43.917,0.54 L43.917,7.847 L36.61,7.851 Z M36.61,22.283 L36.61,14.973 L43.917,14.973 L43.917,22.28 L36.61,22.283 Z M36.61,29.59 L36.61,22.28 L43.917,22.28 L43.917,29.587 L36.61,29.59 Z M36.61,36.861 L36.61,29.587 L43.917,29.587 L43.917,36.858 L36.61,36.861 Z M36.61,51.439 L36.61,44.165 L43.917,44.165 L43.917,51.436 L36.61,51.439 Z M36.61,58.747 L36.61,51.439 L43.917,51.439 L43.917,58.747 L36.61,58.747 Z M36.61,65.872 L36.61,58.747 L43.917,58.747 L43.917,65.872 L36.61,65.872 Z M43.917,7.851 L43.917,0.54 L51.188,0.54 L51.188,7.847 L43.917,7.851 Z M43.917,65.872 L43.917,58.747 L51.188,58.747 L51.188,65.872 L43.917,65.872 Z M51.188,65.872 L51.188,73.072 L43.922,73.072 L43.922,65.872 L51.188,65.872 Z M51.188,7.851 L51.188,0.54 L58.5,0.54 L58.5,7.847 L51.188,7.851 Z M51.188,14.976 L51.188,7.847 L58.5,7.847 L58.5,14.972 L51.188,14.976 Z M51.188,65.876 L51.188,58.751 L58.5,58.751 L58.5,65.876 L51.188,65.876 Z M58.495,65.876 L58.495,73.076 L51.192,73.076 L51.192,65.876 L58.495,65.876 Z M58.495,14.976 L58.495,7.847 L65.77,7.847 L65.77,14.972 L58.495,14.976 Z M58.495,22.283 L58.495,14.973 L65.77,14.973 L65.77,22.28 L58.495,22.283 Z M58.495,29.59 L58.495,22.28 L65.77,22.28 L65.77,29.587 L58.495,29.59 Z M58.495,36.861 L58.495,29.587 L65.77,29.587 L65.77,36.858 L58.495,36.861 Z M58.495,44.168 L58.495,36.858 L65.77,36.858 L65.77,44.165 L58.495,44.168 Z M58.495,51.439 L58.495,44.165 L65.77,44.165 L65.77,51.436 L58.495,51.439 Z M58.495,58.747 L58.495,51.439 L65.77,51.439 L65.77,58.747 L58.495,58.747 Z M58.495,65.872 L58.495,58.747 L65.77,58.747 L65.77,65.872 L58.495,65.872 Z M65.766,65.872 L65.766,73.072 L58.5,73.072 L58.5,65.872 L65.766,65.872 Z M65.766,22.283 L65.766,14.973 L72.928,14.973 L72.928,22.28 L65.766,22.283 Z M65.766,29.59 L65.766,22.28 L72.928,22.28 L72.928,29.587 L65.766,29.59 Z M65.766,36.861 L65.766,29.587 L72.928,29.587 L72.928,36.858 L65.766,36.861 Z M65.766,44.168 L65.766,36.858 L72.928,36.858 L72.928,44.165 L65.766,44.168 Z M65.766,51.439 L65.766,44.165 L72.928,44.165 L72.928,51.436 L65.766,51.439 Z M65.766,58.747 L65.766,51.439 L72.928,51.439 L72.928,58.747 L65.766,58.747 Z M65.766,65.872 L65.766,58.747 L72.928,58.747 L72.928,65.872 L65.766,65.872 Z M72.928,65.872 L72.928,73.072 L65.77,73.072 L65.77,65.872 L72.928,65.872 Z"></path>
                    <path d="M65.77,7.847 L65.77,0.54 L73.077,0.54 L73.077,7.847 L65.77,7.847 Z M65.77,14.972 L65.77,7.847 L73.077,7.847 L73.077,14.972 L65.77,14.972 Z M65.77,22.279 L65.77,14.973 L73.077,14.973 L73.077,22.28 L65.77,22.279 Z M65.77,29.586 L65.77,22.28 L73.077,22.28 L73.077,29.587 L65.77,29.586 Z M65.77,36.857 L65.77,29.587 L73.077,29.587 L73.077,36.858 L65.77,36.857 Z M65.77,44.164 L65.77,36.858 L73.077,36.858 L73.077,44.165 L65.77,44.164 Z M65.77,51.435 L65.77,44.165 L73.077,44.165 L73.077,51.436 L65.77,51.435 Z M65.77,58.743 L65.77,51.435 L73.077,51.435 L73.077,58.743 L65.77,58.743 Z M65.77,65.868 L65.77,58.743 L73.077,58.743 L73.077,65.868 L65.77,65.868 Z M73.077,7.847 L73.077,0.54 L80.348,0.54 L80.348,7.847 L73.077,7.847 Z M73.077,65.868 L73.077,58.743 L80.348,58.743 L80.348,65.868 L73.077,65.868 Z M80.348,65.868 L80.348,73.068 L73.077,73.068 L73.077,65.868 L80.348,65.868 Z M80.348,7.847 L80.348,0.54 L87.655,0.54 L87.655,7.847 L80.348,7.847 Z M80.348,65.868 L80.348,58.743 L87.655,58.743 L87.655,65.868 L80.348,65.868 Z M87.655,65.868 L87.655,73.068 L80.348,73.068 L80.348,65.868 L87.655,65.868 Z M87.655,7.847 L87.655,0.54 L94.78,0.54 L94.78,7.847 L87.655,7.847 Z M87.655,22.279 L87.655,14.973 L94.78,14.973 L94.78,22.28 L87.655,22.279 Z M87.655,29.586 L87.655,22.28 L94.78,22.28 L94.78,29.587 L87.655,29.586 Z M87.655,44.164 L87.655,36.858 L94.78,36.858 L94.78,44.165 L87.655,44.164 Z M87.655,51.435 L87.655,44.165 L94.78,44.165 L94.78,51.436 L87.655,51.435 Z M87.655,58.743 L87.655,51.435 L94.78,51.435 L94.78,58.743 L87.655,58.743 Z M87.655,65.868 L87.655,58.743 L94.78,58.743 L94.78,65.868 L87.655,65.868 Z M94.78,65.868 L94.78,73.068 L87.655,73.068 L87.655,65.868 L94.78,65.868 Z M94.78,7.847 L94.78,0.54 L102.087,0.54 L102.087,7.847 L94.78,7.847 Z M94.78,22.279 L94.78,14.973 L102.087,14.973 L102.087,22.28 L94.78,22.279 Z M94.78,29.586 L94.78,22.28 L102.087,22.28 L102.087,29.587 L94.78,29.586 Z M94.78,44.164 L94.78,36.858 L102.087,36.858 L102.087,44.165 L94.78,44.164 Z M94.78,51.435 L94.78,44.165 L102.087,44.165 L102.087,51.436 L94.78,51.435 Z M94.78,58.743 L94.78,51.435 L102.087,51.435 L102.087,58.743 L94.78,58.743 Z M94.78,65.868 L94.78,58.743 L102.087,58.743 L102.087,65.868 L94.78,65.868 Z M102.087,65.868 L102.087,73.068 L94.78,73.068 L94.78,65.868 L102.087,65.868 Z M102.087,7.847 L102.087,0.54 L109.394,0.54 L109.394,7.847 L102.087,7.847 Z M102.087,22.279 L102.087,14.973 L109.394,14.973 L109.394,22.28 L102.087,22.279 Z M102.087,29.586 L102.087,22.28 L109.394,22.28 L109.394,29.587 L102.087,29.586 Z M102.087,44.164 L102.087,36.858 L109.394,36.858 L109.394,44.165 L102.087,44.164 Z M102.087,51.435 L102.087,44.165 L109.394,44.165 L109.394,51.436 L102.087,51.435 Z M102.087,58.743 L102.087,51.435 L109.394,51.435 L109.394,58.743 L102.087,58.743 Z M102.087,65.868 L102.087,58.743 L109.394,58.743 L109.394,65.868 L102.087,65.868 Z M109.394,7.847 L109.394,0.54 L116.665,0.54 L116.665,7.847 L109.394,7.847 Z M109.394,65.868 L109.394,58.743 L116.665,58.743 L116.665,65.868 L109.394,65.868 Z M116.665,65.868 L116.665,73.068 L109.394,73.068 L109.394,65.868 L116.665,65.868 Z M116.665,7.847 L116.665,0.54 L123.972,0.54 L123.972,7.847 L116.665,7.847 Z M116.665,14.972 L116.665,7.847 L123.972,7.847 L123.972,14.972 L116.665,14.972 Z M116.665,36.857 L116.665,29.587 L123.972,29.587 L123.972,36.858 L116.665,36.857 Z M116.665,65.868 L116.665,58.743 L123.972,58.743 L123.972,65.868 L116.665,65.868 Z M123.972,65.868 L123.972,73.068 L116.665,73.068 L116.665,65.868 L123.972,65.868 Z M123.972,14.968 L123.972,7.847 L131.243,7.847 L131.243,14.972 L123.972,14.968 Z M123.972,22.275 L123.972,14.973 L131.243,14.973 L131.243,22.28 L123.972,22.275 Z M123.972,29.582 L123.972,22.28 L131.243,22.28 L131.243,29.587 L123.972,29.582 Z M123.972,36.853 L123.972,29.587 L131.243,29.587 L131.243,36.858 L123.972,36.853 Z M123.972,44.16 L123.972,36.858 L131.243,36.858 L131.243,44.165 L123.972,44.16 Z M123.972,51.431 L123.972,44.165 L131.243,44.165 L131.243,51.436 L123.972,51.431 Z M123.972,58.739 L123.972,51.431 L131.243,51.431 L131.243,58.739 L123.972,58.739 Z M123.972,65.864 L123.972,58.739 L131.243,58.739 L131.243,65.864 L123.972,65.864 Z M131.243,65.864 L131.243,73.064 L123.972,73.064 L123.972,65.864 L131.243,65.864 Z M131.243,22.275 L131.243,14.973 L138.405,14.973 L138.405,22.28 L131.243,22.275 Z M131.243,29.582 L131.243,22.28 L138.405,22.28 L138.405,29.587 L131.243,29.582 Z M131.243,36.853 L131.243,29.587 L138.405,29.587 L138.405,36.858 L131.243,36.853 Z M131.243,44.16 L131.243,36.858 L138.405,36.858 L138.405,44.165 L131.243,44.16 Z M131.243,51.431 L131.243,44.165 L138.405,44.165 L138.405,51.436 L131.243,51.431 Z M131.243,58.739 L131.243,51.431 L138.405,51.431 L138.405,58.739 L131.243,58.739 Z M131.243,65.864 L131.243,58.739 L138.405,58.739 L138.405,65.864 L131.243,65.864 Z M138.405,65.864 L138.405,73.064 L131.243,73.064 L131.243,65.864 L138.405,65.864 Z"></path>
                    <path d="M131.243,14.973 L131.243,7.847 L138.55,7.847 L138.55,14.972 L131.243,14.973 Z M131.243,22.28 L131.243,14.973 L138.55,14.973 L138.55,22.28 L131.243,22.28 Z M131.243,29.587 L131.243,22.28 L138.55,22.28 L138.55,29.587 L131.243,29.587 Z M131.243,36.858 L131.243,29.587 L138.55,29.587 L138.55,36.858 L131.243,36.858 Z M131.243,44.165 L131.243,36.858 L138.55,36.858 L138.55,44.165 L131.243,44.165 Z M131.243,51.436 L131.243,44.165 L138.55,44.165 L138.55,51.436 L131.243,51.436 Z M131.243,58.744 L131.243,51.436 L138.55,51.436 L138.55,58.744 L131.243,58.744 Z M138.55,7.844 L138.55,0.54 L145.821,0.54 L145.821,7.847 L138.55,7.844 Z M138.55,14.969 L138.55,7.847 L145.821,7.847 L145.821,14.972 L138.55,14.969 Z M138.55,58.739 L138.55,51.431 L145.821,51.431 L145.821,58.739 L138.55,58.739 Z M138.55,65.864 L138.55,58.739 L145.821,58.739 L145.821,65.864 L138.55,65.864 Z M145.821,7.843 L145.821,0.54 L153.128,0.54 L153.128,7.847 L145.821,7.843 Z M145.821,65.864 L145.821,58.739 L153.128,58.739 L153.128,65.864 L145.821,65.864 Z M153.128,65.864 L153.128,73.064 L145.821,73.064 L145.821,65.864 L153.128,65.864 Z M153.128,7.843 L153.128,0.54 L160.253,0.54 L160.253,7.847 L153.128,7.843 Z M153.128,22.275 L153.128,14.973 L160.253,14.973 L160.253,22.28 L153.128,22.275 Z M153.128,29.582 L153.128,22.28 L160.253,22.28 L160.253,29.587 L153.128,29.582 Z M153.128,36.853 L153.128,29.587 L160.253,29.587 L160.253,36.858 L153.128,36.853 Z M153.128,44.16 L153.128,36.858 L160.253,36.858 L160.253,44.165 L153.128,44.16 Z M153.128,51.431 L153.128,44.165 L160.253,44.165 L160.253,51.436 L153.128,51.431 Z M153.128,65.864 L153.128,58.739 L160.253,58.739 L160.253,65.864 L153.128,65.864 Z M160.253,65.864 L160.253,73.064 L153.128,73.064 L153.128,65.864 L160.253,65.864 Z M160.253,7.843 L160.253,0.54 L167.56,0.54 L167.56,7.847 L160.253,7.843 Z M160.253,22.275 L160.253,14.973 L167.56,14.973 L167.56,22.28 L160.253,22.275 Z M160.253,29.582 L160.253,22.28 L167.56,22.28 L167.56,29.587 L160.253,29.582 Z M160.253,36.853 L160.253,29.587 L167.56,29.587 L167.56,36.858 L160.253,36.853 Z M160.253,44.16 L160.253,36.858 L167.56,36.858 L167.56,44.165 L160.253,44.16 Z M160.253,51.431 L160.253,44.165 L167.56,44.165 L167.56,51.436 L160.253,51.431 Z M160.253,65.864 L160.253,58.739 L167.56,58.739 L167.56,65.864 L160.253,65.864 Z M167.56,65.864 L167.56,73.064 L160.253,73.064 L160.253,65.864 L167.56,65.864 Z M167.56,7.843 L167.56,0.54 L174.867,0.54 L174.867,7.847 L167.56,7.843 Z M167.56,22.275 L167.56,14.973 L174.867,14.973 L174.867,22.28 L167.56,22.275 Z M167.56,29.582 L167.56,22.28 L174.867,22.28 L174.867,29.587 L167.56,29.582 Z M167.56,36.853 L167.56,29.587 L174.867,29.587 L174.867,36.858 L167.56,36.853 Z M167.56,44.16 L167.56,36.858 L174.867,36.858 L174.867,44.165 L167.56,44.16 Z M167.56,51.431 L167.56,44.165 L174.867,44.165 L174.867,51.436 L167.56,51.431 Z M167.56,65.864 L167.56,58.739 L174.867,58.739 L174.867,65.864 L167.56,65.864 Z M174.867,65.864 L174.867,73.064 L167.56,73.064 L167.56,65.864 L174.867,65.864 Z M174.867,7.843 L174.867,0.54 L182.138,0.54 L182.138,7.847 L174.867,7.843 Z M174.867,29.583 L174.867,22.28 L182.138,22.28 L182.138,29.587 L174.867,29.583 Z M174.867,36.854 L174.867,29.587 L182.138,29.587 L182.138,36.858 L174.867,36.854 Z M174.867,44.161 L174.867,36.858 L182.138,36.858 L182.138,44.165 L174.867,44.161 Z M174.867,65.861 L174.867,58.736 L182.138,58.736 L182.138,65.861 L174.867,65.861 Z M182.138,65.861 L182.138,73.061 L174.867,73.061 L174.867,65.861 L182.138,65.861 Z M182.138,7.84 L182.138,0.54 L189.445,0.54 L189.445,7.847 L182.138,7.84 Z M182.138,14.965 L182.138,7.847 L189.445,7.847 L189.445,14.972 L182.138,14.965 Z M182.138,29.579 L182.138,22.28 L189.445,22.28 L189.445,29.587 L182.138,29.579 Z M182.138,36.85 L182.138,29.587 L189.445,29.587 L189.445,36.858 L182.138,36.85 Z M182.138,44.157 L182.138,36.858 L189.445,36.858 L189.445,44.165 L182.138,44.157 Z M182.138,58.735 L182.138,51.427 L189.445,51.427 L189.445,58.735 L182.138,58.735 Z M182.138,65.86 L182.138,58.735 L189.445,58.735 L189.445,65.86 L182.138,65.86 Z M189.445,65.86 L189.445,73.06 L182.138,73.06 L182.138,65.86 L189.445,65.86 Z M189.445,14.96 L189.445,7.847 L196.716,7.847 L196.716,14.972 L189.445,14.96 Z M189.445,22.267 L189.445,14.973 L196.716,14.973 L196.716,22.28 L189.445,22.267 Z M189.445,29.574 L189.445,22.28 L196.716,22.28 L196.716,29.587 L189.445,29.574 Z M189.445,36.845 L189.445,29.587 L196.716,29.587 L196.716,36.858 L189.445,36.845 Z M189.445,44.152 L189.445,36.858 L196.716,36.858 L196.716,44.165 L189.445,44.152 Z M189.445,51.423 L189.445,44.165 L196.716,44.165 L196.716,51.436 L189.445,51.423 Z M189.445,58.731 L189.445,51.423 L196.716,51.423 L196.716,58.731 L189.445,58.731 Z M189.445,65.856 L189.445,58.731 L196.716,58.731 L196.716,65.856 L189.445,65.856 Z M196.716,65.856 L196.716,73.056 L189.445,73.056 L189.445,65.856 L196.716,65.856 Z M196.716,22.267 L196.716,14.973 L203.878,14.973 L203.878,22.28 L196.716,22.267 Z M196.716,29.574 L196.716,22.28 L203.878,22.28 L203.878,29.587 L196.716,29.574 Z M196.716,36.845 L196.716,29.587 L203.878,29.587 L203.878,36.858 L196.716,36.845 Z M196.716,51.423 L196.716,44.165 L203.878,44.165 L203.878,51.436 L196.716,51.423 Z M196.716,58.731 L196.716,51.423 L203.878,51.423 L203.878,58.731 L196.716,58.731 Z M196.716,65.856 L196.716,58.731 L203.878,58.731 L203.878,65.856 L196.716,65.856 Z"></path>
                    <path d="M196.716,14.973 L196.716,7.847 L204.023,7.847 L204.023,14.972 L196.716,14.973 Z M196.716,22.28 L196.716,14.973 L204.023,14.973 L204.023,22.28 L196.716,22.28 Z M196.716,29.587 L196.716,22.28 L204.023,22.28 L204.023,29.587 L196.716,29.587 Z M196.716,36.858 L196.716,29.587 L204.023,29.587 L204.023,36.858 L196.716,36.858 Z M196.716,44.165 L196.716,36.858 L204.023,36.858 L204.023,44.165 L196.716,44.165 Z M196.716,51.436 L196.716,44.165 L204.023,44.165 L204.023,51.436 L196.716,51.436 Z M196.716,58.744 L196.716,51.436 L204.023,51.436 L204.023,58.744 L196.716,58.744 Z M196.716,65.869 L196.716,58.744 L204.023,58.744 L204.023,65.869 L196.716,65.869 Z M204.023,7.848 L204.023,0.54 L211.294,0.54 L211.294,7.847 L204.023,7.848 Z M204.023,14.973 L204.023,7.847 L211.294,7.847 L211.294,14.972 L204.023,14.973 Z M204.023,65.873 L204.023,58.748 L211.294,58.748 L211.294,65.873 L204.023,65.873 Z M211.294,65.873 L211.294,73.073 L204.023,73.073 L204.023,65.873 L211.294,65.873 Z M211.294,7.852 L211.294,0.54 L218.6,0.54 L218.6,7.847 L211.294,7.852 Z M211.294,65.873 L211.294,58.748 L218.6,58.748 L218.6,65.873 L211.294,65.873 Z M218.601,65.873 L218.601,73.073 L211.294,73.073 L211.294,65.873 L218.601,65.873 Z M218.601,7.852 L218.601,0.54 L225.726,0.54 L225.726,7.847 L218.601,7.852 Z M218.601,22.284 L218.601,14.973 L225.726,14.973 L225.726,22.28 L218.601,22.284 Z M218.601,29.591 L218.601,22.28 L225.726,22.28 L225.726,29.587 L218.601,29.591 Z M218.601,36.862 L218.601,29.587 L225.726,29.587 L225.726,36.858 L218.601,36.862 Z M218.601,51.44 L218.601,44.165 L225.726,44.165 L225.726,51.436 L218.601,51.44 Z M218.601,58.748 L218.601,51.44 L225.726,51.44 L225.726,58.748 L218.601,58.748 Z M218.601,65.873 L218.601,58.748 L225.726,58.748 L225.726,65.873 L218.601,65.873 Z M225.726,65.873 L225.726,73.073 L218.6,73.073 L218.6,65.873 L225.726,65.873 Z M225.726,7.852 L225.726,0.54 L233.033,0.54 L233.033,7.847 L225.726,7.852 Z M225.726,22.284 L225.726,14.973 L233.033,14.973 L233.033,22.28 L225.726,22.284 Z M225.726,29.591 L225.726,22.28 L233.033,22.28 L233.033,29.587 L225.726,29.591 Z M225.726,36.862 L225.726,29.587 L233.033,29.587 L233.033,36.858 L225.726,36.862 Z M225.726,51.44 L225.726,44.165 L233.033,44.165 L233.033,51.436 L225.726,51.44 Z M225.726,58.748 L225.726,51.44 L233.033,51.44 L233.033,58.748 L225.726,58.748 Z M225.726,65.873 L225.726,58.748 L233.033,58.748 L233.033,65.873 L225.726,65.873 Z M233.033,65.873 L233.033,73.073 L225.726,73.073 L225.726,65.873 L233.033,65.873 Z M233.033,7.852 L233.033,0.54 L240.34,0.54 L240.34,7.847 L233.033,7.852 Z M233.033,22.284 L233.033,14.973 L240.34,14.973 L240.34,22.28 L233.033,22.284 Z M233.033,29.591 L233.033,22.28 L240.34,22.28 L240.34,29.587 L233.033,29.591 Z M233.033,36.862 L233.033,29.587 L240.34,29.587 L240.34,36.858 L233.033,36.862 Z M233.033,51.44 L233.033,44.165 L240.34,44.165 L240.34,51.436 L233.033,51.44 Z M233.033,58.748 L233.033,51.44 L240.34,51.44 L240.34,58.748 L233.033,58.748 Z M233.033,65.873 L233.033,58.748 L240.34,58.748 L240.34,65.873 L233.033,65.873 Z M240.34,7.852 L240.34,0.54 L247.611,0.54 L247.611,7.847 L240.34,7.852 Z M240.34,65.873 L240.34,58.748 L247.611,58.748 L247.611,65.873 L240.34,65.873 Z M247.611,65.873 L247.611,73.073 L240.34,73.073 L240.34,65.873 L247.611,65.873 Z M247.611,7.852 L247.611,0.54 L254.918,0.54 L254.918,7.847 L247.611,7.852 Z M247.611,14.977 L247.611,7.847 L254.918,7.847 L254.918,14.972 L247.611,14.977 Z M247.611,65.877 L247.611,58.752 L254.918,58.752 L254.918,65.877 L247.611,65.877 Z M254.918,65.877 L254.918,73.077 L247.611,73.077 L247.611,65.877 L254.918,65.877 Z M254.918,14.977 L254.918,7.847 L262.189,7.847 L262.189,14.972 L254.918,14.977 Z M254.918,22.284 L254.918,14.973 L262.189,14.973 L262.189,22.28 L254.918,22.284 Z M254.918,29.591 L254.918,22.28 L262.189,22.28 L262.189,29.587 L254.918,29.591 Z M254.918,36.862 L254.918,29.587 L262.189,29.587 L262.189,36.858 L254.918,36.862 Z M254.918,44.169 L254.918,36.858 L262.189,36.858 L262.189,44.165 L254.918,44.169 Z M254.918,51.44 L254.918,44.165 L262.189,44.165 L262.189,51.436 L254.918,51.44 Z M254.918,58.748 L254.918,51.44 L262.189,51.44 L262.189,58.748 L254.918,58.748 Z M254.918,65.873 L254.918,58.748 L262.189,58.748 L262.189,65.873 L254.918,65.873 Z M262.189,65.873 L262.189,73.073 L254.918,73.073 L254.918,65.873 L262.189,65.873 Z M262.189,22.284 L262.189,14.973 L269.351,14.973 L269.351,22.28 L262.189,22.284 Z M262.189,29.591 L262.189,22.28 L269.351,22.28 L269.351,29.587 L262.189,29.591 Z M262.189,36.862 L262.189,29.587 L269.351,29.587 L269.351,36.858 L262.189,36.862 Z M262.189,44.169 L262.189,36.858 L269.351,36.858 L269.351,44.165 L262.189,44.169 Z M262.189,51.44 L262.189,44.165 L269.351,44.165 L269.351,51.436 L262.189,51.44 Z M262.189,58.748 L262.189,51.44 L269.351,51.44 L269.351,58.748 L262.189,58.748 Z M262.189,65.873 L262.189,58.748 L269.351,58.748 L269.351,65.873 L262.189,65.873 Z M269.351,65.873 L269.351,73.073 L262.189,73.073 L262.189,65.873 L269.351,65.873 Z"></path>
                    <path d="M262.189,7.847 L262.189,0.54 L269.5,0.54 L269.5,7.847 L262.189,7.847 Z M262.189,14.972 L262.189,7.847 L269.5,7.847 L269.5,14.972 L262.189,14.972 Z M262.189,22.279 L262.189,14.973 L269.5,14.973 L269.5,22.28 L262.189,22.279 Z M262.189,29.586 L262.189,22.28 L269.5,22.28 L269.5,29.587 L262.189,29.586 Z M262.189,36.857 L262.189,29.587 L269.5,29.587 L269.5,36.858 L262.189,36.857 Z M262.189,44.164 L262.189,36.858 L269.5,36.858 L269.5,44.165 L262.189,44.164 Z M262.189,51.435 L262.189,44.165 L269.5,44.165 L269.5,51.436 L262.189,51.435 Z M262.189,58.743 L262.189,51.435 L269.5,51.435 L269.5,58.743 L262.189,58.743 Z M262.189,65.868 L262.189,58.743 L269.5,58.743 L269.5,65.868 L262.189,65.868 Z M269.5,7.847 L269.5,0.54 L276.771,0.54 L276.771,7.847 L269.5,7.847 Z M269.5,65.868 L269.5,58.743 L276.771,58.743 L276.771,65.868 L269.5,65.868 Z M276.771,65.868 L276.771,73.068 L269.5,73.068 L269.5,65.868 L276.771,65.868 Z M276.771,7.847 L276.771,0.54 L284.078,0.54 L284.078,7.847 L276.771,7.847 Z M276.771,65.868 L276.771,58.743 L284.078,58.743 L284.078,65.868 L276.771,65.868 Z M284.078,65.868 L284.078,73.068 L276.771,73.068 L276.771,65.868 L284.078,65.868 Z M284.078,7.847 L284.078,0.54 L291.2,0.54 L291.2,7.847 L284.078,7.847 Z M284.078,22.279 L284.078,14.973 L291.2,14.973 L291.2,22.28 L284.078,22.279 Z M284.078,29.586 L284.078,22.28 L291.2,22.28 L291.2,29.587 L284.078,29.586 Z M284.078,36.857 L284.078,29.587 L291.2,29.587 L291.2,36.858 L284.078,36.857 Z M284.078,44.164 L284.078,36.858 L291.2,36.858 L291.2,44.165 L284.078,44.164 Z M284.078,51.435 L284.078,44.165 L291.2,44.165 L291.2,51.436 L284.078,51.435 Z M284.078,65.868 L284.078,58.743 L291.2,58.743 L291.2,65.868 L284.078,65.868 Z M291.203,65.868 L291.203,73.068 L284.078,73.068 L284.078,65.868 L291.203,65.868 Z M291.203,7.847 L291.203,0.54 L298.51,0.54 L298.51,7.847 L291.203,7.847 Z M291.203,22.279 L291.203,14.973 L298.51,14.973 L298.51,22.28 L291.203,22.279 Z M291.203,29.586 L291.203,22.28 L298.51,22.28 L298.51,29.587 L291.203,29.586 Z M291.203,36.857 L291.203,29.587 L298.51,29.587 L298.51,36.858 L291.203,36.857 Z M291.203,44.164 L291.203,36.858 L298.51,36.858 L298.51,44.165 L291.203,44.164 Z M291.203,51.435 L291.203,44.165 L298.51,44.165 L298.51,51.436 L291.203,51.435 Z M291.203,65.868 L291.203,58.743 L298.51,58.743 L298.51,65.868 L291.203,65.868 Z M298.51,65.868 L298.51,73.068 L291.2,73.068 L291.2,65.868 L298.51,65.868 Z M298.51,7.847 L298.51,0.54 L305.817,0.54 L305.817,7.847 L298.51,7.847 Z M298.51,29.587 L298.51,22.28 L305.817,22.28 L305.817,29.587 L298.51,29.587 Z M298.51,36.858 L298.51,29.587 L305.817,29.587 L305.817,36.858 L298.51,36.858 Z M298.51,44.165 L298.51,36.858 L305.817,36.858 L305.817,44.165 L298.51,44.165 Z M298.51,65.865 L298.51,58.74 L305.817,58.74 L305.817,65.865 L298.51,65.865 Z M305.817,65.865 L305.817,73.065 L298.51,73.065 L298.51,65.865 L305.817,65.865 Z M305.817,7.844 L305.817,0.54 L313.088,0.54 L313.088,7.847 L305.817,7.844 Z M305.817,14.969 L305.817,7.847 L313.088,7.847 L313.088,14.972 L305.817,14.969 Z M305.817,58.739 L305.817,51.431 L313.088,51.431 L313.088,58.739 L305.817,58.739 Z M305.817,65.864 L305.817,58.739 L313.088,58.739 L313.088,65.864 L305.817,65.864 Z M313.088,65.864 L313.088,73.064 L305.817,73.064 L305.817,65.864 L313.088,65.864 Z M313.088,14.964 L313.088,7.847 L320.395,7.847 L320.395,14.972 L313.088,14.964 Z M313.088,22.271 L313.088,14.973 L320.395,14.973 L320.395,22.28 L313.088,22.271 Z M313.088,51.427 L313.088,44.165 L320.395,44.165 L320.395,51.436 L313.088,51.427 Z M313.088,58.735 L313.088,51.427 L320.395,51.427 L320.395,58.735 L313.088,58.735 Z M313.088,65.86 L313.088,58.735 L320.395,58.735 L320.395,65.86 L313.088,65.86 Z M320.395,65.86 L320.395,73.06 L313.088,73.06 L313.088,65.86 L320.395,65.86 Z M320.395,22.271 L320.395,14.973 L327.666,14.973 L327.666,22.28 L320.395,22.271 Z M320.395,29.578 L320.395,22.28 L327.666,22.28 L327.666,29.587 L320.395,29.578 Z M320.395,36.849 L320.395,29.587 L327.666,29.587 L327.666,36.858 L320.395,36.849 Z M320.395,44.156 L320.395,36.858 L327.666,36.858 L327.666,44.165 L320.395,44.156 Z M320.395,51.427 L320.395,44.165 L327.666,44.165 L327.666,51.436 L320.395,51.427 Z M320.395,58.735 L320.395,51.427 L327.666,51.427 L327.666,58.735 L320.395,58.735 Z M320.395,65.86 L320.395,58.735 L327.666,58.735 L327.666,65.86 L320.395,65.86 Z M327.666,29.578 L327.666,22.28 L334.828,22.28 L334.828,29.587 L327.666,29.578 Z M327.666,36.849 L327.666,29.587 L334.828,29.587 L334.828,36.858 L327.666,36.849 Z M327.666,44.156 L327.666,36.858 L334.828,36.858 L334.828,44.165 L327.666,44.156 Z M327.666,51.427 L327.666,44.165 L334.828,44.165 L334.828,51.436 L327.666,51.427 Z M327.666,58.735 L327.666,51.427 L334.828,51.427 L334.828,58.735 L327.666,58.735 Z"></path>
                    <path d="M327.662,7.847 L327.662,0.54 L334.969,0.54 L334.969,7.847 L327.662,7.847 Z M327.662,14.972 L327.662,7.847 L334.969,7.847 L334.969,14.972 L327.662,14.972 Z M327.662,22.279 L327.662,14.973 L334.969,14.973 L334.969,22.28 L327.662,22.279 Z M327.662,29.586 L327.662,22.28 L334.969,22.28 L334.969,29.587 L327.662,29.586 Z M327.662,36.857 L327.662,29.587 L334.969,29.587 L334.969,36.858 L327.662,36.857 Z M327.662,44.164 L327.662,36.858 L334.969,36.858 L334.969,44.165 L327.662,44.164 Z M327.662,51.435 L327.662,44.165 L334.969,44.165 L334.969,51.436 L327.662,51.435 Z M327.662,58.743 L327.662,51.435 L334.969,51.435 L334.969,58.743 L327.662,58.743 Z M327.662,65.868 L327.662,58.743 L334.969,58.743 L334.969,65.868 L327.662,65.868 Z M334.969,7.847 L334.969,0.54 L342.24,0.54 L342.24,7.847 L334.969,7.847 Z M334.969,65.868 L334.969,58.743 L342.24,58.743 L342.24,65.868 L334.969,65.868 Z M342.24,65.868 L342.24,73.068 L334.969,73.068 L334.969,65.868 L342.24,65.868 Z M342.24,7.847 L342.24,0.54 L349.547,0.54 L349.547,7.847 L342.24,7.847 Z M342.24,65.868 L342.24,58.743 L349.547,58.743 L349.547,65.868 L342.24,65.868 Z M349.547,65.868 L349.547,73.068 L342.24,73.068 L342.24,65.868 L349.547,65.868 Z M349.547,7.847 L349.547,0.54 L356.672,0.54 L356.672,7.847 L349.547,7.847 Z M349.547,22.279 L349.547,14.973 L356.672,14.973 L356.672,22.28 L349.547,22.279 Z M349.547,29.586 L349.547,22.28 L356.672,22.28 L356.672,29.587 L349.547,29.586 Z M349.547,44.164 L349.547,36.858 L356.672,36.858 L356.672,44.165 L349.547,44.164 Z M349.547,51.435 L349.547,44.165 L356.672,44.165 L356.672,51.436 L349.547,51.435 Z M349.547,65.868 L349.547,58.743 L356.672,58.743 L356.672,65.868 L349.547,65.868 Z M356.672,65.868 L356.672,73.068 L349.547,73.068 L349.547,65.868 L356.672,65.868 Z M356.672,7.847 L356.672,0.54 L363.979,0.54 L363.979,7.847 L356.672,7.847 Z M356.672,22.279 L356.672,14.973 L363.979,14.973 L363.979,22.28 L356.672,22.279 Z M356.672,29.586 L356.672,22.28 L363.979,22.28 L363.979,29.587 L356.672,29.586 Z M356.672,44.164 L356.672,36.858 L363.979,36.858 L363.979,44.165 L356.672,44.164 Z M356.672,51.435 L356.672,44.165 L363.979,44.165 L363.979,51.436 L356.672,51.435 Z M356.672,65.868 L356.672,58.743 L363.979,58.743 L363.979,65.868 L356.672,65.868 Z M363.979,65.868 L363.979,73.068 L356.672,73.068 L356.672,65.868 L363.979,65.868 Z M363.979,7.847 L363.979,0.54 L371.286,0.54 L371.286,7.847 L363.979,7.847 Z M363.979,22.279 L363.979,14.973 L371.286,14.973 L371.286,22.28 L363.979,22.279 Z M363.979,29.586 L363.979,22.28 L371.286,22.28 L371.286,29.587 L363.979,29.586 Z M363.979,44.164 L363.979,36.858 L371.286,36.858 L371.286,44.165 L363.979,44.164 Z M363.979,51.435 L363.979,44.165 L371.286,44.165 L371.286,51.436 L363.979,51.435 Z M363.979,65.868 L363.979,58.743 L371.286,58.743 L371.286,65.868 L363.979,65.868 Z M371.286,65.868 L371.286,73.068 L363.98,73.068 L363.98,65.868 L371.286,65.868 Z M371.286,7.847 L371.286,0.54 L378.557,0.54 L378.557,7.847 L371.286,7.847 Z M371.286,22.279 L371.286,14.973 L378.557,14.973 L378.557,22.28 L371.286,22.279 Z M371.286,29.586 L371.286,22.28 L378.557,22.28 L378.557,29.587 L371.286,29.586 Z M371.286,44.164 L371.286,36.858 L378.557,36.858 L378.557,44.165 L371.286,44.164 Z M371.286,51.435 L371.286,44.165 L378.557,44.165 L378.557,51.436 L371.286,51.435 Z M371.286,65.868 L371.286,58.743 L378.557,58.743 L378.557,65.868 L371.286,65.868 Z M378.557,65.868 L378.557,73.068 L371.286,73.068 L371.286,65.868 L378.557,65.868 Z M378.557,7.847 L378.557,0.54 L385.864,0.54 L385.864,7.847 L378.557,7.847 Z M378.557,22.279 L378.557,14.973 L385.864,14.973 L385.864,22.28 L378.557,22.279 Z M378.557,29.586 L378.557,22.28 L385.864,22.28 L385.864,29.587 L378.557,29.586 Z M378.557,36.857 L378.557,29.587 L385.864,29.587 L385.864,36.858 L378.557,36.857 Z M378.557,44.164 L378.557,36.858 L385.864,36.858 L385.864,44.165 L378.557,44.164 Z M378.557,51.435 L378.557,44.165 L385.864,44.165 L385.864,51.436 L378.557,51.435 Z M378.557,65.868 L378.557,58.743 L385.864,58.743 L385.864,65.868 L378.557,65.868 Z M385.864,65.868 L385.864,73.068 L378.557,73.068 L378.557,65.868 L385.864,65.868 Z M385.864,7.847 L385.864,0.54 L393.135,0.54 L393.135,7.847 L385.864,7.847 Z M385.864,14.972 L385.864,7.847 L393.135,7.847 L393.135,14.972 L385.864,14.972 Z M385.864,22.279 L385.864,14.973 L393.135,14.973 L393.135,22.28 L385.864,22.279 Z M385.864,29.586 L385.864,22.28 L393.135,22.28 L393.135,29.587 L385.864,29.586 Z M385.864,36.857 L385.864,29.587 L393.135,29.587 L393.135,36.858 L385.864,36.857 Z M385.864,44.164 L385.864,36.858 L393.135,36.858 L393.135,44.165 L385.864,44.164 Z M385.864,51.435 L385.864,44.165 L393.135,44.165 L393.135,51.436 L385.864,51.435 Z M385.864,58.743 L385.864,51.435 L393.135,51.435 L393.135,58.743 L385.864,58.743 Z M385.864,65.868 L385.864,58.743 L393.135,58.743 L393.135,65.868 L385.864,65.868 Z M393.135,65.868 L393.135,73.068 L385.864,73.068 L385.864,65.868 L393.135,65.868 Z M393.135,14.968 L393.135,7.847 L400.3,7.847 L400.3,14.972 L393.135,14.968 Z M393.135,22.275 L393.135,14.973 L400.3,14.973 L400.3,22.28 L393.135,22.275 Z M393.135,29.582 L393.135,22.28 L400.3,22.28 L400.3,29.587 L393.135,29.582 Z M393.135,58.738 L393.135,51.43 L400.3,51.43 L400.3,58.738 L393.135,58.738 Z M393.135,65.863 L393.135,58.738 L400.3,58.738 L400.3,65.863 L393.135,65.863 Z M400.297,65.863 L400.297,73.063 L393.135,73.063 L393.135,65.863 L400.297,65.863 Z"></path>
                </g>
            </g>
        </g>
    </g>
</svg>