<svg id="Layer_2" data-name="Layer 2" xmlns="http://www.w3.org/2000/svg" width="1408.354" height="456.5" viewBox="0 0 1408.354 456.5">
  <title>Artboard 1</title>
  <g>
    <g>
      <g id="g236">
        <path id="path238" d="M1377.638,388.729s-31.121-38.416-49.074-60.748c-6.006-7.475-10.462-13.046-12.029-15.093a73.725,73.725,0,0,0-4.749-5.952,4.205,4.205,0,0,0-2.043-1.373,11.752,11.752,0,0,0-3.288-.351h-73.481a9.076,9.076,0,0,1-9.076-9.076V285.33h-63.97a9.076,9.076,0,0,1-9.078-9.076V226.978a9.076,9.076,0,0,1,9.078-9.076l64.835,0v-1.728H1158.2a9.073,9.073,0,0,1-9.076-9.076V160.414a9.073,9.073,0,0,1,9.076-9.076l64.834,0v-1.728h-77.8V296.137a9.076,9.076,0,0,1-9.074,9.076H1080.4a9.073,9.073,0,0,1-9.076-9.076l0-163.818h-3.89V296.137a9.076,9.076,0,0,1-9.074,9.076H922.2a9.076,9.076,0,0,1-9.078-9.076V179a9.079,9.079,0,0,1,9.078-9.078h70.885V83.907H905.339V297a9.076,9.076,0,0,1-9.076,9.077h-105.9A9.076,9.076,0,0,1,781.287,297V265.879a9.076,9.076,0,0,1,9.078-9.076l41.062,0V148.31H724.232V256.8h39.335a9.073,9.073,0,0,1,9.076,9.076V297a9.076,9.076,0,0,1-9.076,9.077H667.178a41.362,41.362,0,0,1-9.242-.791,24.151,24.151,0,0,1-10.47-5.261c-.56-.488-.733-.68-1.03-.975-.27-.278-.555-.577-.883-.928q-.975-1.044-2.441-2.659c-1.952-2.153-4.551-5.054-7.584-8.466-6.069-6.82-13.876-15.668-21.595-24.44-15.44-17.546-30.52-34.786-30.523-34.789a9.077,9.077,0,0,1,6.832-15.053h59.648V149.174H573.818V296.135a9.079,9.079,0,0,1-9.076,9.076H509.415a9.079,9.079,0,0,1-9.078-9.076V95.542a9.076,9.076,0,0,1,9.078-9.076h73.91v-3.89H414.389v3.89h72.617a9.076,9.076,0,0,1,9.076,9.076V296.1a9.079,9.079,0,0,1-9.076,9.076h-55.76a9.077,9.077,0,0,1-9.076-9.076V284.428h-65.7a9.076,9.076,0,0,1-9.076-9.074V226.078A9.073,9.073,0,0,1,356.47,217l65.7,0V214.84H356.037a9.073,9.073,0,0,1-9.076-9.077V159.514a9.076,9.076,0,0,1,9.076-9.078H422.6v-2.594H343.5V296.1a9.079,9.079,0,0,1-9.076,9.076h-57.92a21.244,21.244,0,0,1-3.258-.214,14.821,14.821,0,0,1-3.779-1.108,37.612,37.612,0,0,1-5.347-3.228,10.166,10.166,0,0,1-1.714-1.44c-.337-.348-.575-.63-.8-.9-.443-.543-.822-1.056-1.241-1.64-.822-1.154-1.76-2.561-2.865-4.272-2.2-3.415-5.048-8.011-8.345-13.441-6.59-10.852-14.964-25-23.216-39.073-16.5-28.134-32.5-55.919-32.508-55.928a9.076,9.076,0,0,1,7.865-13.607l70.455,0V83.87H185.666l-1.243,212.28a9.1,9.1,0,0,1-9.023,9.024c-.026,0-71.263.432-74.4.432a23.63,23.63,0,0,1-12.677-3.615,20.4,20.4,0,0,1-4.8-4.1h0L17.07,217.6v0a9.077,9.077,0,1,1,13.985-11.574L97.4,286.175a4.124,4.124,0,0,0,.612.463,5.422,5.422,0,0,0,2.992.816c1.411,0,20.067-.109,38.252-.216l27.068-.163,1.245-212.332a9.083,9.083,0,0,1,9.076-9.023H280.812a9.077,9.077,0,0,1,9.076,9.076V179.4a9.077,9.077,0,0,1-9.076,9.076H217.006c2.689,4.645,5.926,10.229,9.488,16.354,9.933,17.083,22.386,38.379,32.427,55.16,6.675,11.16,12.352,20.417,15.269,24.752.4.6.762,1.118,1.022,1.477.532.354.947.625,1.232.807h.045c2.247,0,33.112,0,48.842,0V138.766a9.082,9.082,0,0,1,9.079-9.077h97.253a9.08,9.08,0,0,1,9.076,9.077v20.748a9.079,9.079,0,0,1-9.076,9.076H365.1v28.1H431.23a9.08,9.08,0,0,1,9.079,9.078v20.315a9.08,9.08,0,0,1-9.079,9.076l-65.7,0v31.123h65.7a9.08,9.08,0,0,1,9.079,9.079v11.668h37.6v-182.4H405.3a9.077,9.077,0,0,1-9.079-9.076V73.485a9.082,9.082,0,0,1,9.079-9.079H592.457a9.077,9.077,0,0,1,9.076,9.079V95.529a9.076,9.076,0,0,1-9.076,9.078H518.544v182.4h37.173V140.05a9.079,9.079,0,0,1,9.078-9.078h94.228a9.076,9.076,0,0,1,9.076,9.078v81.693a9.079,9.079,0,0,1-9.076,9.076H610.317c4.106,4.683,8.849,10.086,13.743,15.654,14.072,16.007,29.518,33.495,34.381,38.742.436.473.806.86.986,1.047A5.657,5.657,0,0,0,662,287.53a24.894,24.894,0,0,0,5.238.344c4.176,0,64.116,0,87.312,0V274.906H715.211a9.077,9.077,0,0,1-9.077-9.077V139.184a9.08,9.08,0,0,1,9.077-9.078H840.56a9.08,9.08,0,0,1,9.077,9.078V265.829a9.077,9.077,0,0,1-9.077,9.077H799.495v12.966h87.744V74.779a9.073,9.073,0,0,1,9.077-9.076h105.9a9.073,9.073,0,0,1,9.076,9.076V178.949a9.076,9.076,0,0,1-9.076,9.076H931.326v98.982h118V123.189a9.08,9.08,0,0,1,9.078-9.077h22.043a9.077,9.077,0,0,1,9.076,9.077V287.007h37.606V140.479a9.076,9.076,0,0,1,9.078-9.076h95.957a9.073,9.073,0,0,1,9.076,9.076v19.883a9.073,9.073,0,0,1-9.076,9.076h-64.836v28.529h66.566a9.071,9.071,0,0,1,9.076,9.077v19.882a9.076,9.076,0,0,1-9.076,9.077h-64.838v31.121h63.972a9.076,9.076,0,0,1,9.077,9.078v10.805h64.4a29.6,29.6,0,0,1,8.438,1.1,21.694,21.694,0,0,1,7.158,3.66c4.031,3.2,6.181,6.567,8.9,10.045.915,1.2,3.752,4.767,7.584,9.546,3.846,4.8,8.753,10.9,14.024,17.433,10.543,13.073,22.54,27.907,30.45,37.681,5.273,6.516,8.722,10.77,8.731,10.783a9.123,9.123,0,0,1-14.224,11.428Z" fill="#fee600"/>
        <path id="path240" d="M1384.727,396.847a13.816,13.816,0,0,1-10.753-5.125v0c-.168-.206-31.168-38.473-49.085-60.761-6.019-7.492-10.451-13.029-12.11-15.2-2.084-2.765-3.692-4.838-4.266-5.408q-.173-.165-.29-.272c-.07-.013-.163-.027-.278-.041a11.667,11.667,0,0,0-1.458-.073h-73.482a13.834,13.834,0,0,1-13.832-13.831v-6.051h-59.215a13.9,13.9,0,0,1-9.781-4.051c-.054-.054-.108-.111-.163-.166v10.268a13.834,13.834,0,0,1-13.83,13.832h-55.759a13.873,13.873,0,0,1-9.782-4.053,14.027,14.027,0,0,1-1.241-1.428,13.807,13.807,0,0,1-11.021,5.481H922.228a13.818,13.818,0,0,1-12.809-8.62,13.816,13.816,0,0,1-13.124,9.484H790.4A13.825,13.825,0,0,1,777,300.418a13.818,13.818,0,0,1-13.4,10.415H667.183a45.847,45.847,0,0,1-10.228-.9,28.884,28.884,0,0,1-12.584-6.321c-.657-.565-1.069-1-1.255-1.183l-.034-.034-.032-.034c-.291-.3-.595-.619-.943-.992q-1.009-1.076-2.493-2.712c-1.968-2.172-4.574-5.08-7.613-8.5-6.078-6.83-13.89-15.683-21.613-24.46-15.445-17.552-30.526-34.793-30.531-34.8a13.9,13.9,0,0,1-1.26-1.685v66.922a13.834,13.834,0,0,1-13.829,13.832H509.44a13.879,13.879,0,0,1-9.781-4.053,14.035,14.035,0,0,1-1.458-1.723,13.8,13.8,0,0,1-11.236,5.775H431a13.834,13.834,0,0,1-13.832-13.831V289.22H356.222a13.87,13.87,0,0,1-8.213-2.7v9.622a13.837,13.837,0,0,1-13.831,13.831H276.238a26.034,26.034,0,0,1-3.924-.264,19.515,19.515,0,0,1-5.1-1.5,41.4,41.4,0,0,1-5.928-3.55l-.052-.031-.049-.036a15.041,15.041,0,0,1-2.357-1.97l-.043-.041-.041-.044c-.45-.464-.8-.877-1.064-1.2-.535-.656-.986-1.267-1.432-1.89-.89-1.251-1.861-2.708-2.988-4.455-2.247-3.48-5.106-8.1-8.414-13.55-6.612-10.891-15-25.054-23.254-39.137-14.773-25.187-29.149-50.1-32.006-55.058l-.638,108.976a13.854,13.854,0,0,1-13.762,13.751h-.04l-.152,0c-.137,0-.337,0-.6,0l-2.27.014-8.119.05-24.838.149c-18.216.107-36.774.216-38.394.216h-.054a28.416,28.416,0,0,1-15.169-4.354c-.794-.5-1.509-1.011-2.146-1.5l-.438.437L21.594,230.838l-8.417-10.167a13.839,13.839,0,0,1-1.092-16.13v-.1l.037.045a13.836,13.836,0,0,1,22.367-1.451l65.952,79.677c.041,0,.129.008.332.029,1.358,0,20.051-.11,38.224-.216l22.368-.135,1.218-207.638A13.84,13.84,0,0,1,176.415,61H280.584A13.834,13.834,0,0,1,294.415,74.83v104.6a13.834,13.834,0,0,1-13.831,13.833H225.03c1.669,2.879,3.463,5.968,5.349,9.209,9.927,17.073,22.374,38.36,32.4,55.109,6.65,11.118,12.342,20.394,15.147,24.557l.11.163c5.03,0,19.172,0,32.009,0h10.31V138.842a13.837,13.837,0,0,1,13.833-13.832h97.253a13.834,13.834,0,0,1,13.831,13.831V159.59a13.837,13.837,0,0,1-13.831,13.832H369.626v18.585H431a13.837,13.837,0,0,1,13.832,13.832l0,20.317A13.835,13.835,0,0,1,431,239.984H370.057V261.6H431a13.837,13.837,0,0,1,13.835,13.832v6.916h28.092v-172.9H405.07A13.834,13.834,0,0,1,391.235,95.62V73.572A13.837,13.837,0,0,1,405.07,59.739H592.229a13.831,13.831,0,0,1,13.832,13.833V95.616a13.834,13.834,0,0,1-13.832,13.833h-69.16v172.9h27.664v-142.2a13.834,13.834,0,0,1,13.835-13.833l94.228,0a13.834,13.834,0,0,1,13.831,13.835v81.69A13.834,13.834,0,0,1,658.8,235.669H620.586c2.2,2.51,4.494,5.117,6.818,7.76,14.053,15.983,29.542,33.518,34.308,38.662.258.278.493.528.668.713.06.043.1.07.123.084l.007.008s0,0,.046.015.188.057.4.111a24.036,24.036,0,0,0,3.728.2c.054,0,.2,0,.431,0,2.911,0,24.211,0,46.045,0h36.409v-3.457H714.988a13.834,13.834,0,0,1-13.832-13.831V139.264a13.834,13.834,0,0,1,13.832-13.833H840.337a13.835,13.835,0,0,1,13.832,13.833V265.91a13.831,13.831,0,0,1-13.832,13.831H804.026V283.2h78.238V74.86A13.828,13.828,0,0,1,896.1,61.028l105.9,0a13.831,13.831,0,0,1,13.829,13.833l0,104.169A13.831,13.831,0,0,1,1002,192.858H935.86v89.473h108.492V123.268a13.834,13.834,0,0,1,13.833-13.833h22.043a13.837,13.837,0,0,1,13.831,13.833V282.331h28.1V140.557a13.834,13.834,0,0,1,13.832-13.832h95.957a13.831,13.831,0,0,1,13.83,13.832l0,19.884a13.829,13.829,0,0,1-13.832,13.831H1171.86v19.019h61.813a13.826,13.826,0,0,1,13.831,13.831V227a13.832,13.832,0,0,1-13.831,13.831h-60.084v21.613h59.218a13.831,13.831,0,0,1,13.832,13.833v6.049h59.652a34.346,34.346,0,0,1,9.764,1.285,26.5,26.5,0,0,1,8.787,4.5c4.683,3.728,7.153,7.625,9.726,10.889.833,1.093,3.7,4.692,7.512,9.453,3.842,4.793,8.748,10.889,14.015,17.422,10.541,13.069,22.537,27.9,30.446,37.674,5.234,6.467,8.659,10.692,8.736,10.788,0,.006,0,0,0,0s-.006-.008,0,0a13.83,13.83,0,0,1-10.727,22.535h-.259Zm-116.445-96.389h38.2a16.167,16.167,0,0,1,4.658.553l.111.034.1.034a8.509,8.509,0,0,1,1.925.9,12.127,12.127,0,0,1,1.834,1.532l.057.055a73.478,73.478,0,0,1,5.169,6.43c1.488,1.943,5.967,7.546,11.96,15,17.943,22.318,49.062,60.734,49.062,60.734l-3.694,2.995,3.694-2.995a4.323,4.323,0,1,0,6.676-5.495c-.027-.031-.067-.08-.117-.144-.107-.131-.262-.323-.466-.573l-1.765-2.18c-1.525-1.879-3.7-4.572-6.34-7.832-7.911-9.775-19.91-24.608-30.455-37.686-5.275-6.538-10.183-12.639-14.033-17.443s-6.657-8.329-7.619-9.59c-2.908-3.745-4.737-6.576-8.083-9.227a16.981,16.981,0,0,0-5.581-2.849,24.839,24.839,0,0,0-7.09-.9c-3.013,0-45.42,0-64.4,0h-4.756v-15.56a4.322,4.322,0,0,0-4.322-4.324h-68.727V231.3h69.593a4.322,4.322,0,0,0,4.322-4.322V207.094a4.315,4.315,0,0,0-4.322-4.322h-71.322V164.734h69.593a4.315,4.315,0,0,0,4.32-4.32V140.531a4.315,4.315,0,0,0-4.32-4.321h-95.957a4.319,4.319,0,0,0-4.324,4.321V291.814h-47.116V123.241a4.318,4.318,0,0,0-4.32-4.322h-22.043a4.322,4.322,0,0,0-4.324,4.322V291.814H926.545v-108.5h75.644a4.323,4.323,0,0,0,4.322-4.32l0-104.169a4.315,4.315,0,0,0-4.32-4.322h-105.9a4.315,4.315,0,0,0-4.324,4.322V292.672H794.714V270.2h45.822a4.321,4.321,0,0,0,4.322-4.322V139.229a4.325,4.325,0,0,0-4.322-4.324H715.186a4.324,4.324,0,0,0-4.322,4.325V265.875a4.322,4.322,0,0,0,4.322,4.322h44.088v22.477H754.52c-9.609,0-25.522,0-41.164,0-22.122,0-43.705,0-46.146,0h-.057l-.054,0h-.22a27.313,27.313,0,0,1-6.013-.472l-.044-.012-.034-.009a10.688,10.688,0,0,1-4.343-2.149l-.24-.19-.22-.226c-.21-.218-.6-.625-1.057-1.122-4.968-5.363-20.373-22.808-34.466-38.837-4.9-5.569-9.64-10.974-13.748-15.658l-6.918-7.889H659a4.325,4.325,0,0,0,4.321-4.322V140.1A4.32,4.32,0,0,0,659,135.772H564.838a4.327,4.327,0,0,0-4.325,4.324V291.811H513.831V99.872H592.5a4.32,4.32,0,0,0,4.321-4.322V73.5a4.322,4.322,0,0,0-4.321-4.324H405.332a4.321,4.321,0,0,0-4.324,4.324V95.544a4.318,4.318,0,0,0,4.324,4.32H482.7V291.777H435.587V275.355a4.325,4.325,0,0,0-4.324-4.324H360.808V230.4l70.455,0a4.321,4.321,0,0,0,4.324-4.32V205.764a4.325,4.325,0,0,0-4.324-4.324H360.376v-37.6H431.7a4.325,4.325,0,0,0,4.322-4.322V138.767a4.325,4.325,0,0,0-4.322-4.322H334.436a4.325,4.325,0,0,0-4.324,4.322V291.779l-4.758,0h-15.06c-15.151,0-32.137,0-33.778,0-.014,0-.119,0-.316-.008l-1.243-.072-1.047-.667c-.322-.207-.756-.489-1.306-.857l-.716-.478-.5-.7c-.3-.406-.688-.965-1.113-1.6-3.044-4.526-8.705-13.765-15.4-24.965-10.06-16.815-22.519-38.121-32.456-55.211-3.565-6.128-6.8-11.717-9.495-16.362l-4.13-7.138h72.051a4.321,4.321,0,0,0,4.322-4.322V74.811a4.322,4.322,0,0,0-4.322-4.322H176.668a4.33,4.33,0,0,0-4.322,4.3l-1.271,217.035-4.7.027c-6.89.042-16.914.1-27.069.163-18.2.107-36.815.216-38.316.216a10.333,10.333,0,0,1-5.4-1.5l-.032-.02-.044-.025a8.857,8.857,0,0,1-1.344-1.029l-.216-.2L27.417,209.076a4.323,4.323,0,0,0-6.7,5.463l66.027,79.769.465.558A15.62,15.62,0,0,0,90.9,298a18.889,18.889,0,0,0,10.069,2.873h.054c3.093,0,74.323-.431,74.369-.431a4.341,4.341,0,0,0,4.3-4.3L180.962,79.13h95.559v95.957l-75.208,0a4.322,4.322,0,0,0-3.783,6.416l.02.032a.066.066,0,0,1,.009.02.111.111,0,0,1,.014.023c.01.016.022.036.037.063.032.055.078.137.139.242.123.21.3.523.538.93.469.817,1.16,2.013,2.038,3.533,1.758,3.046,4.274,7.4,7.3,12.626,6.061,10.458,14.182,24.432,22.425,38.488s16.613,28.2,23.179,39.01c3.285,5.412,6.114,9.981,8.276,13.329,1.085,1.68,1.988,3.036,2.738,4.085.4.554.7.97,1.027,1.364.2.243.33.4.532.606a5.288,5.288,0,0,0,1.023.861h0a32.53,32.53,0,0,0,4.624,2.821,10.185,10.185,0,0,0,2.526.736,16.221,16.221,0,0,0,2.543.162h57.921a4.33,4.33,0,0,0,4.322-4.322V143.085h88.617v12.1H356.066a4.321,4.321,0,0,0-4.322,4.324v46.249a4.32,4.32,0,0,0,4.322,4.322h70.885v11.67l-70.453,0a4.318,4.318,0,0,0-4.322,4.322v49.274a4.32,4.32,0,0,0,4.322,4.318h70.455V296.1a4.323,4.323,0,0,0,4.32,4.322h55.761a4.325,4.325,0,0,0,4.32-4.322V95.541a4.321,4.321,0,0,0-4.32-4.322H409.662V77.82H588.185v13.4H509.521a4.318,4.318,0,0,0-4.322,4.322V296.1a4.322,4.322,0,0,0,4.322,4.322h55.327a4.325,4.325,0,0,0,4.32-4.322V144.384h85.583v73.048l-64.4,0a4.335,4.335,0,0,0-3.941,2.546,4.269,4.269,0,0,0-.383,1.775,4.372,4.372,0,0,0,1.075,2.856h0l.006.008c.006.008.018.02.031.038.029.034.073.081.129.146.115.131.284.326.506.577.443.506,1.093,1.248,1.919,2.195,1.655,1.89,4.022,4.592,6.872,7.843,5.7,6.5,13.328,15.2,21.044,23.967s15.52,17.614,21.579,24.422c3.027,3.4,5.619,6.3,7.554,8.432.963,1.062,1.764,1.933,2.383,2.6.312.332.577.609.82.862.347.346.306.321.737.7a19.465,19.465,0,0,0,8.394,4.219,36.748,36.748,0,0,0,8.213.678h96.389A4.321,4.321,0,0,0,768,296.964V265.842a4.32,4.32,0,0,0-4.322-4.322h-44.09V143.536h116.7v118H790.473a4.327,4.327,0,0,0-4.324,4.322l0,31.122a4.318,4.318,0,0,0,4.322,4.322h105.9a4.322,4.322,0,0,0,4.321-4.322V79.134h97.253v95.524H922.307a4.322,4.322,0,0,0-4.322,4.324V296.119a4.324,4.324,0,0,0,4.322,4.322h136.155a4.323,4.323,0,0,0,4.318-4.322V127.546h13.4l0,168.573a4.324,4.324,0,0,0,4.322,4.322h55.759a4.323,4.323,0,0,0,4.318-4.322V144.836h87.312v11.238l-69.587,0a4.319,4.319,0,0,0-4.322,4.322v46.681a4.322,4.322,0,0,0,4.322,4.322h71.318v11.237h-69.589a4.324,4.324,0,0,0-4.322,4.322v49.277a4.321,4.321,0,0,0,4.322,4.32h68.726V296.12a4.322,4.322,0,0,0,4.321,4.322h35.271Zm-539.26-48.411H763.6A13.816,13.816,0,0,1,777,262.461a13.825,13.825,0,0,1,13.4-10.414l36.306,0V153.071H729.024v98.975ZM587.041,224.678a.2.2,0,0,0-.016-.019l-.01-.012,0,0h0a.12.12,0,0,0,.026.035Zm-8.455-10.3a13.837,13.837,0,0,1,11.671-6.408H645.15V153.938H578.587v60.431l-.017,0ZM910.13,172.316a13.809,13.809,0,0,1,12.1-7.143l66.131,0v-76.5H910.13v83.649Zm-720.263-.752a13.828,13.828,0,0,1,11.374-5.961l65.7,0V88.663H190.353l-.493,82.9ZM498.191,87.523c.036-.052.074-.1.112-.154h-.224a1.512,1.512,0,0,1,.112.154Z"/>
      </g>
      <g id="g242">
        <path id="path244" d="M1061.5,90.762l-30.688-30.69a9.079,9.079,0,0,1,.093-12.929l30.69-29.824a9.078,9.078,0,0,1,12.788.137l29.825,30.258a9.082,9.082,0,0,1,0,12.743l-29.825,30.257a9.048,9.048,0,0,1-6.431,2.706h-.028a8.991,8.991,0,0,1-6.484-2.663Zm-11.411-37.017L1067.8,71.459l17.124-17.374L1067.711,36.62l-17.635,17.125Z" fill="#fee600"/>
        <path id="path246" d="M1067.9,98.17a13.83,13.83,0,0,1-9.784-4.051l3.361-3.363-3.361,3.361-30.689-30.68a13.836,13.836,0,0,1-4.053-9.765.757.757,0,0,1,0-.092c0-.044,0-.1,0-.175a13.84,13.84,0,0,1,4.188-9.671l30.691-29.824a13.834,13.834,0,0,1,19.488.208l29.825,30.258a13.838,13.838,0,0,1,0,19.42L1077.743,94.05a13.822,13.822,0,0,1-9.819,4.127h.086Zm0-9.509h.01a4.3,4.3,0,0,0,3.062-1.29l29.825-30.255a4.329,4.329,0,0,0,0-6.07L1070.972,20.79a4.322,4.322,0,0,0-6.088-.067l-30.691,29.824a4.351,4.351,0,0,0-1.311,3.071v.122a4.334,4.334,0,0,0,1.267,2.963l30.686,30.689a4.375,4.375,0,0,0,3.112,1.27Zm-21.18-31.555-3.41-3.41,24.466-23.776,23.821,24.164-23.776,24.123-21.18-21.1Zm21.093,7.6,10.473-10.626-10.611-10.764-10.778,10.474,10.979,10.917Z"/>
      </g>
    </g>
    <g>
      <path d="M621.648,410.8q0,9.141-6.609,14.344t-18.234,5.2q-11.626,0-19.031-3.609V416.141a51.715,51.715,0,0,0,9.961,3.469,42.235,42.235,0,0,0,9.82,1.266q6.656,0,9.82-2.531a8.254,8.254,0,0,0,3.164-6.8,8.518,8.518,0,0,0-2.906-6.516q-2.907-2.672-12-6.328-9.376-3.8-13.219-8.672a18.349,18.349,0,0,1-3.844-11.719q0-8.578,6.094-13.5t16.359-4.922a48.066,48.066,0,0,1,19.594,4.313l-3.562,9.141q-9.141-3.844-16.312-3.844-5.438,0-8.25,2.367a7.775,7.775,0,0,0-2.812,6.258,8.81,8.81,0,0,0,1.125,4.57,11.491,11.491,0,0,0,3.7,3.586,62.588,62.588,0,0,0,9.281,4.453,50.783,50.783,0,0,1,11.063,5.859,17.239,17.239,0,0,1,5.156,6.141A18.471,18.471,0,0,1,621.648,410.8Z"/>
      <path d="M673.679,429.406H634.914V360.875h38.766v9.469H646.117V389h25.828v9.375H646.117v21.516h27.563Z"/>
      <path d="M712.164,429.406h-11.2V370.484H680.8v-9.609H732.32v9.609H712.164Z"/>
      <path d="M752.092,429.406h-11.2V370.484H720.732v-9.609h51.516v9.609H752.092Z"/>
      <path d="M780.348,429.406V360.875h11.2v68.531Z"/>
      <path d="M864.338,429.406H850.6L816.9,374.8h-.375l.234,3.047q.656,8.719.656,15.938v35.625H807.245V360.875h13.594L854.448,415.2h.281q-.094-1.078-.375-7.852t-.281-10.57V360.875h10.266Z"/>
      <path d="M908.063,392.234h25.219v34.406A72.983,72.983,0,0,1,921.4,429.5a84.12,84.12,0,0,1-12.3.844q-15.563,0-24-9.211t-8.437-25.992q0-16.547,9.516-25.9t26.2-9.352a51.031,51.031,0,0,1,20.344,4.125l-3.937,9.328a39.59,39.59,0,0,0-16.687-3.844q-10.969,0-17.344,6.891t-6.375,18.844q0,12.563,5.742,19.1t16.523,6.539a54.306,54.306,0,0,0,11.625-1.359V401.844h-14.2Z"/>
      <path d="M989.251,410.8q0,9.141-6.609,14.344t-18.234,5.2q-11.625,0-19.031-3.609V416.141a51.715,51.715,0,0,0,9.961,3.469,42.235,42.235,0,0,0,9.82,1.266q6.656,0,9.82-2.531a8.254,8.254,0,0,0,3.164-6.8,8.518,8.518,0,0,0-2.906-6.516q-2.906-2.672-12-6.328-9.375-3.8-13.219-8.672a18.349,18.349,0,0,1-3.844-11.719q0-8.578,6.094-13.5t16.359-4.922A48.066,48.066,0,0,1,988.22,364.2l-3.562,9.141q-9.141-3.844-16.312-3.844-5.437,0-8.25,2.367a7.775,7.775,0,0,0-2.812,6.258,8.81,8.81,0,0,0,1.125,4.57,11.491,11.491,0,0,0,3.7,3.586,62.638,62.638,0,0,0,9.281,4.453,50.783,50.783,0,0,1,11.063,5.859,17.234,17.234,0,0,1,5.156,6.141A18.471,18.471,0,0,1,989.251,410.8Z"/>
    </g>
  </g>
</svg>
